HIERARCHY
ROOT Hips
{
	OFFSET 0.000000 83.214638 0.000000
	CHANNELS 6 Xposition Yposition Zposition Xrotation Yrotation Zrotation
	JOINT Pelvis
	{
		OFFSET 0.000000 0.000000 0.000000
		CHANNELS 3 Xrotation Yrotation Zrotation
		JOINT LeftUpLeg
		{
			OFFSET 8.479700 -4.795502 -0.379100
			CHANNELS 3 Xrotation Yrotation Zrotation
			JOINT LeftLeg
			{
				OFFSET 0.024144 -32.555107 0.112900
				CHANNELS 3 Xrotation Yrotation Zrotation
				JOINT LeftFoot
				{
					OFFSET -0.024144 -32.638630 -3.012600
					CHANNELS 3 Xrotation Yrotation Zrotation
					JOINT LeftToeBase
					{
						OFFSET 0.970200 -13.225400 11.864200
						CHANNELS 3 Xrotation Yrotation Zrotation
						End Site
						{
							OFFSET 0.000000 12.319262 0.000000
						}
					}
					JOINT LFootTongue
					{
						OFFSET 1.142400 -1.059800 6.665200
						CHANNELS 3 Xrotation Yrotation Zrotation
						End Site
						{
							OFFSET 0.000000 12.319262 0.000000
						}
					}
				}
				JOINT LeftPantLeg
				{
					OFFSET 0.918482 -16.533964 -2.284700
					CHANNELS 3 Xrotation Yrotation Zrotation
					End Site
					{
						OFFSET 0.350399 24.744368 0.000000
					}
				}
			}
		}
		JOINT RightUpLeg
		{
			OFFSET -8.479700 -4.795502 -0.379100
			CHANNELS 3 Xrotation Yrotation Zrotation
			JOINT RightLeg
			{
				OFFSET -0.023144 -32.555092 0.112900
				CHANNELS 3 Xrotation Yrotation Zrotation
				JOINT RightFoot
				{
					OFFSET 0.023144 -32.638641 -3.012700
					CHANNELS 3 Xrotation Yrotation Zrotation
					JOINT RightToeBase
					{
						OFFSET -0.970200 -13.225400 11.864200
						CHANNELS 3 Xrotation Yrotation Zrotation
						End Site
						{
							OFFSET 0.000000 12.319244 0.000000
						}
					}
					JOINT RFootTongue
					{
						OFFSET -1.142200 -1.059800 6.665200
						CHANNELS 3 Xrotation Yrotation Zrotation
						End Site
						{
							OFFSET 0.000000 12.319243 0.000000
						}
					}
				}
				JOINT RightPantLeg
				{
					OFFSET -0.919482 -16.533978 -2.284800
					CHANNELS 3 Xrotation Yrotation Zrotation
					End Site
					{
						OFFSET -0.350400 24.744419 0.000000
					}
				}
			}
		}
	}
	JOINT Spine
	{
		OFFSET 0.000000 7.722000 1.166200
		CHANNELS 3 Xrotation Yrotation Zrotation
		JOINT Spine1
		{
			OFFSET 0.000000 12.024101 0.248800
			CHANNELS 3 Xrotation Yrotation Zrotation
			JOINT Spine2
			{
				OFFSET 0.000000 11.502998 -0.491200
				CHANNELS 3 Xrotation Yrotation Zrotation
				JOINT Neck
				{
					OFFSET 0.000000 18.430702 -3.123100
					CHANNELS 3 Xrotation Yrotation Zrotation
					JOINT Head
					{
						OFFSET 0.000000 9.051102 1.034000
						CHANNELS 3 Xrotation Yrotation Zrotation
						JOINT HairB
						{
							OFFSET 0.208400 24.786102 24.822300
							CHANNELS 3 Xrotation Yrotation Zrotation
							End Site
							{
								OFFSET 0.000000 32.263779 0.000000
							}
						}
						JOINT HairA
						{
							OFFSET -7.081100 24.428299 23.196600
							CHANNELS 3 Xrotation Yrotation Zrotation
							End Site
							{
								OFFSET 0.000000 32.263779 0.000000
							}
						}
						JOINT Hat
						{
							OFFSET 16.728800 15.048294 -15.439601
							CHANNELS 3 Xrotation Yrotation Zrotation
							End Site
							{
								OFFSET 0.000000 32.263779 0.000000
							}
						}
					}
				}
				JOINT LeftShoulder
				{
					OFFSET 6.197800 13.665199 -4.064700
					CHANNELS 3 Xrotation Yrotation Zrotation
					JOINT LeftArm
					{
						OFFSET 7.778100 -0.187103 -1.709300
						CHANNELS 3 Xrotation Yrotation Zrotation
						JOINT LeftForeArm
						{
							OFFSET 22.049376 0.000000 0.000000
							CHANNELS 3 Xrotation Yrotation Zrotation
							JOINT LeftHand
							{
								OFFSET 23.009392 0.000000 0.000000
								CHANNELS 3 Xrotation Yrotation Zrotation
								JOINT LeftHandThumb1
								{
									OFFSET 3.507191 -2.063065 3.133727
									CHANNELS 3 Xrotation Yrotation Zrotation
									JOINT LeftHandThumb2
									{
										OFFSET 3.101337 -1.790558 1.790558
										CHANNELS 3 Xrotation Yrotation Zrotation
										JOINT LeftHandThumb3
										{
											OFFSET 3.058640 -1.765907 1.765906
											CHANNELS 3 Xrotation Yrotation Zrotation
											End Site
											{
												OFFSET -0.415260 3.926476 -0.049563
											}
										}
									}
								}
								JOINT LeftHandIndex1
								{
									OFFSET 11.334419 -0.901459 3.706815
									CHANNELS 3 Xrotation Yrotation Zrotation
									JOINT LeftHandIndex2
									{
										OFFSET 3.283112 0.000000 0.000000
										CHANNELS 3 Xrotation Yrotation Zrotation
										JOINT LeftHandIndex3
										{
											OFFSET 3.323853 0.000000 0.000000
											CHANNELS 3 Xrotation Yrotation Zrotation
											End Site
											{
												OFFSET -1.135597 3.097809 0.402452
											}
										}
									}
								}
								JOINT LeftHandMiddle1
								{
									OFFSET 11.335861 0.000000 0.000000
									CHANNELS 3 Xrotation Yrotation Zrotation
									JOINT LeftHandMiddle2
									{
										OFFSET 3.410492 0.000000 0.000000
										CHANNELS 3 Xrotation Yrotation Zrotation
										JOINT LeftHandMiddle3
										{
											OFFSET 3.312172 0.000000 0.000000
											CHANNELS 3 Xrotation Yrotation Zrotation
											End Site
											{
												OFFSET -1.150200 3.080154 0.400270
											}
										}
									}
								}
								JOINT LeftHandRing1
								{
									OFFSET 11.514786 -0.013176 -3.003090
									CHANNELS 3 Xrotation Yrotation Zrotation
									JOINT LeftHandRing2
									{
										OFFSET 3.053307 0.000000 0.000000
										CHANNELS 3 Xrotation Yrotation Zrotation
										JOINT LeftHandRing3
										{
											OFFSET 3.295807 0.000000 0.000000
											CHANNELS 3 Xrotation Yrotation Zrotation
											End Site
											{
												OFFSET -1.281006 3.013344 0.375733
											}
										}
									}
								}
								JOINT LeftHandPinky1
								{
									OFFSET 10.518692 -0.960396 -5.730441
									CHANNELS 3 Xrotation Yrotation Zrotation
									JOINT LeftHandPinky2
									{
										OFFSET 2.861649 0.000000 0.000000
										CHANNELS 3 Xrotation Yrotation Zrotation
										JOINT LeftHandPinky3
										{
											OFFSET 2.863380 0.000000 0.000000
											CHANNELS 3 Xrotation Yrotation Zrotation
											End Site
											{
												OFFSET -0.843597 2.711159 0.369971
											}
										}
									}
								}
							}
							JOINT LSleeve
							{
								OFFSET 6.676277 -0.344902 -1.011730
								CHANNELS 3 Xrotation Yrotation Zrotation
								End Site
								{
									OFFSET 0.000000 14.885353 0.000000
								}
							}
						}
					}
				}
				JOINT RightShoulder
				{
					OFFSET -6.197800 13.665199 -4.064700
					CHANNELS 3 Xrotation Yrotation Zrotation
					JOINT RightArm
					{
						OFFSET -7.778100 -0.187103 -1.709300
						CHANNELS 3 Xrotation Yrotation Zrotation
						JOINT RightForeArm
						{
							OFFSET -22.049376 0.000000 0.000000
							CHANNELS 3 Xrotation Yrotation Zrotation
							JOINT RightHand
							{
								OFFSET -23.009392 0.000000 0.000000
								CHANNELS 3 Xrotation Yrotation Zrotation
								JOINT RightHandThumb1
								{
									OFFSET -3.507191 -2.063065 3.133727
									CHANNELS 3 Xrotation Yrotation Zrotation
									JOINT RightHandThumb2
									{
										OFFSET -3.101337 -1.790558 1.790558
										CHANNELS 3 Xrotation Yrotation Zrotation
										JOINT RightHandThumb3
										{
											OFFSET -3.058640 -1.765907 1.765906
											CHANNELS 3 Xrotation Yrotation Zrotation
											End Site
											{
												OFFSET 0.415260 3.926476 -0.049563
											}
										}
									}
								}
								JOINT RightHandIndex1
								{
									OFFSET -11.334419 -0.901459 3.706815
									CHANNELS 3 Xrotation Yrotation Zrotation
									JOINT RightHandIndex2
									{
										OFFSET -3.283112 0.000000 0.000000
										CHANNELS 3 Xrotation Yrotation Zrotation
										JOINT RightHandIndex3
										{
											OFFSET -3.323853 0.000000 0.000000
											CHANNELS 3 Xrotation Yrotation Zrotation
											End Site
											{
												OFFSET 1.135597 3.097809 0.402452
											}
										}
									}
								}
								JOINT RightHandMiddle1
								{
									OFFSET -11.335861 0.000000 0.000000
									CHANNELS 3 Xrotation Yrotation Zrotation
									JOINT RightHandMiddle2
									{
										OFFSET -3.410492 0.000000 0.000000
										CHANNELS 3 Xrotation Yrotation Zrotation
										JOINT RightHandMiddle3
										{
											OFFSET -3.312172 0.000000 0.000000
											CHANNELS 3 Xrotation Yrotation Zrotation
											End Site
											{
												OFFSET 1.150200 3.080154 0.400270
											}
										}
									}
								}
								JOINT RightHandRing1
								{
									OFFSET -11.514786 -0.013176 -3.003090
									CHANNELS 3 Xrotation Yrotation Zrotation
									JOINT RightHandRing2
									{
										OFFSET -3.053307 0.000000 0.000000
										CHANNELS 3 Xrotation Yrotation Zrotation
										JOINT RightHandRing3
										{
											OFFSET -3.295807 0.000000 0.000000
											CHANNELS 3 Xrotation Yrotation Zrotation
											End Site
											{
												OFFSET 1.281006 3.013344 0.375733
											}
										}
									}
								}
								JOINT RightHandPinky1
								{
									OFFSET -10.518692 -0.960396 -5.730441
									CHANNELS 3 Xrotation Yrotation Zrotation
									JOINT RightHandPinky2
									{
										OFFSET -2.861649 0.000000 0.000000
										CHANNELS 3 Xrotation Yrotation Zrotation
										JOINT RightHandPinky3
										{
											OFFSET -2.863380 0.000000 0.000000
											CHANNELS 3 Xrotation Yrotation Zrotation
											End Site
											{
												OFFSET 0.843597 2.711159 0.369971
											}
										}
									}
								}
							}
							JOINT RSleeve
							{
								OFFSET -6.676277 -0.344902 -1.011730
								CHANNELS 3 Xrotation Yrotation Zrotation
								End Site
								{
									OFFSET 0.000000 14.885353 0.000000
								}
							}
						}
					}
				}
				JOINT Backpack
				{
					OFFSET 0.000000 -2.471497 36.677502
					CHANNELS 3 Xrotation Yrotation Zrotation
					End Site
					{
						OFFSET 0.000000 20.427315 0.000000
					}
				}
				JOINT Hood
				{
					OFFSET 0.000000 18.754097 -10.431000
					CHANNELS 3 Xrotation Yrotation Zrotation
					JOINT Hood1
					{
						OFFSET 0.000000 -5.011002 -7.685901
						CHANNELS 3 Xrotation Yrotation Zrotation
						End Site
						{
							OFFSET 0.000000 9.175140 0.000000
						}
					}
				}
				JOINT LHoodieString
				{
					OFFSET 5.250500 16.397697 3.089900
					CHANNELS 3 Xrotation Yrotation Zrotation
					JOINT LHoodieString1
					{
						OFFSET 0.257700 -6.364304 3.694600
						CHANNELS 3 Xrotation Yrotation Zrotation
						JOINT LHoodieString2
						{
							OFFSET 0.000000 -9.643799 2.679100
							CHANNELS 3 Xrotation Yrotation Zrotation
							End Site
							{
								OFFSET 0.000000 10.009018 0.000000
							}
						}
					}
				}
				JOINT RHoodieString
				{
					OFFSET -5.250500 16.397697 3.089900
					CHANNELS 3 Xrotation Yrotation Zrotation
					JOINT RHoodieString1
					{
						OFFSET -0.257700 -6.364304 3.694600
						CHANNELS 3 Xrotation Yrotation Zrotation
						JOINT RHoodieString2
						{
							OFFSET 0.000000 -9.643799 2.679100
							CHANNELS 3 Xrotation Yrotation Zrotation
							End Site
							{
								OFFSET 0.000000 10.009018 0.000000
							}
						}
					}
				}
			}
			JOINT LBackpack_Strap
			{
				OFFSET 15.223200 -7.719803 -6.610900
				CHANNELS 3 Xrotation Yrotation Zrotation
				End Site
				{
					OFFSET 0.000000 16.040596 0.000000
				}
			}
			JOINT RBackpack_Strap
			{
				OFFSET -15.223000 -7.719803 -6.610900
				CHANNELS 3 Xrotation Yrotation Zrotation
				End Site
				{
					OFFSET 0.000000 16.040596 0.000000
				}
			}
		}
	}
	JOINT BoyFacialAnim_Joint
	{
		OFFSET 1.000000 -82.208099 -1.550900
		CHANNELS 3 Xrotation Yrotation Zrotation
		End Site
		{
			OFFSET 0.000000 30.012791 0.000000
		}
	}
}
MOTION
Frames: 5
Frame Time: 0.033333
-1.974532 79.692993 1.615129 -6.793453 10.704459 3.747753 0.000000 0.000001 -0.000000 -11.945625 9.689879 8.618375 31.438128 -3.013513 -0.142483 -10.600683 1.352025 -8.545951 0.000000 -0.000000 -0.000000 0.000000 -0.000000 -0.000000 -0.000000 0.000000 0.000000 -7.531078 -11.231457 -11.953296 33.614557 -10.418196 -0.860096 -16.344137 -2.727976 11.665464 0.000000 -0.000002 -0.000000 0.000000 -0.000002 -0.000000 0.000003 0.000001 0.000000 11.003881 9.374892 2.650986 2.123994 1.683805 -1.339394 2.145739 1.661083 -1.341957 10.254042 -4.287177 -1.024096 -11.553538 -22.741251 0.014727 0.000000 -0.000000 0.000000 0.000000 -0.000000 0.000000 0.000000 -0.000000 0.000000 0.572615 -1.726390 -7.942678 -14.747405 -47.424213 -46.346006 -0.000004 -124.130847 0.000005 9.926284 -1.793976 -22.356411 -2.294624 1.368570 17.387276 24.770142 50.451773 -14.706786 0.000001 0.000000 -0.000001 12.607500 8.127848 -78.916593 6.557025 6.873602 -87.293253 -0.000001 -0.000001 -0.000004 14.680448 8.202053 -80.971059 6.796746 6.880678 -89.295154 -0.000001 -0.000002 -0.000000 6.306420 6.857257 -85.233944 6.314505 6.857941 -85.264755 -0.000001 0.000003 -0.000003 11.396351 6.609364 -93.627004 5.775158 2.705750 -80.758538 0.000001 0.000001 -0.000002 0.000001 -0.000002 0.000004 0.700674 3.997771 -14.323702 -37.327657 32.188557 29.059275 0.000007 63.582484 -0.000012 -21.804756 -2.145935 22.972441 -16.198970 5.633286 -5.960605 20.439823 -42.500548 4.165099 -0.000003 -0.000001 -0.000002 5.122468 -7.519845 102.546759 6.441644 -6.929841 85.808650 -0.000002 -0.000004 0.000001 9.285178 -6.552069 107.209538 4.717735 -6.582153 71.232767 0.000004 0.000001 0.000002 8.134525 -6.846687 99.866477 5.363908 -6.766052 76.788415 -0.000000 -0.000002 0.000004 1.308434 -6.439382 84.501502 6.647115 -6.941750 87.510043 0.000000 0.000001 0.000000 -0.000000 -0.000003 -0.000000 0.000000 -0.000001 -0.000000 0.000000 -0.000001 -0.000000 0.000000 -0.000001 -0.000000 0.000000 -0.000001 -0.000000 0.000000 -0.000001 -0.000000 0.000000 -0.000001 -0.000000 0.000000 -0.000001 -0.000000 0.000000 -0.000001 -0.000000 0.000000 -0.000001 -0.000000 -0.000000 0.000000 -0.000000 -0.000000 0.000000 -0.000000 0.000000 0.000001 -0.000000 
-2.320394 79.567291 1.677392 -7.053890 8.826921 3.213098 -0.000000 -0.000000 0.000000 -11.650652 10.276014 9.747716 32.053740 -2.279046 -0.273245 -11.201042 1.508825 -9.128710 0.000000 0.000001 0.000000 0.000000 0.000001 -0.000000 0.000002 -0.000002 -0.000001 -7.618035 -10.651905 -11.127662 34.059985 -9.789729 -1.005027 -16.749239 -2.252100 11.006831 0.000000 -0.000000 -0.000000 0.000000 -0.000000 -0.000000 -0.000001 -0.000001 -0.000000 10.892040 5.911389 2.659556 2.068621 1.072174 -1.016178 2.080406 1.053682 -1.018000 10.139602 -3.859203 -1.599724 -11.187110 -20.186535 -1.545721 0.000000 0.000000 0.000000 0.000000 0.000000 0.000000 0.000000 0.000000 0.000000 0.585106 -3.437444 -7.958027 -24.704994 -42.842628 -48.739281 0.000027 -124.809659 0.000036 7.661199 -2.582282 -23.894249 -2.311096 1.353563 17.009420 24.878160 50.551903 -14.790276 -0.000001 0.000002 0.000001 12.682142 8.074930 -79.446165 6.562941 6.873872 -87.342670 0.000000 -0.000002 -0.000004 14.723350 8.164578 -81.250414 6.822315 6.880939 -89.508523 0.000001 0.000002 0.000001 6.330976 6.859259 -85.439540 6.324520 6.858753 -85.348678 0.000001 0.000001 -0.000004 11.411848 6.598833 -93.761210 5.782586 2.706949 -80.821225 -0.000000 0.000001 0.000002 0.000001 0.000001 0.000002 0.575036 3.394166 -12.638845 -34.418040 35.994281 33.659784 0.000013 69.086421 -0.000020 -21.105594 -3.822523 22.422519 -15.858173 5.498974 -6.781718 20.678452 -42.877728 4.260564 0.000000 0.000000 -0.000002 5.276018 -7.501048 102.807796 6.437637 -6.929539 85.775360 -0.000001 0.000001 0.000002 9.295112 -6.548926 107.223718 4.736866 -6.588578 71.399601 0.000001 0.000000 0.000003 8.116926 -6.849708 99.718904 5.358315 -6.764753 76.740795 -0.000001 -0.000005 0.000005 1.278229 -6.412787 84.231252 6.639243 -6.941409 87.444767 -0.000001 -0.000001 -0.000002 -0.000001 -0.000004 -0.000001 0.000000 -0.000002 0.000000 0.000000 -0.000002 0.000000 0.000000 -0.000002 0.000000 0.000000 -0.000002 0.000000 0.000000 -0.000002 -0.000000 0.000000 -0.000001 -0.000000 0.000000 -0.000002 0.000000 0.000000 -0.000002 -0.000000 0.000000 -0.000001 -0.000000 0.000000 -0.000001 -0.000000 0.000000 -0.000001 -0.000000 -0.000000 -0.000000 0.000000 
-2.466326 79.661987 1.770779 -7.064192 5.827761 2.382781 0.000000 -0.000000 -0.000000 -10.649091 11.014634 10.751868 31.575316 -0.298888 -0.483524 -11.522854 1.383407 -9.814355 0.000000 0.000003 -0.000000 0.000000 0.000003 0.000000 -0.000000 -0.000001 0.000000 -7.511282 -9.958038 -10.161772 33.225814 -8.173229 -1.196726 -16.443349 -1.851586 10.087634 0.000000 0.000001 -0.000000 0.000000 0.000001 -0.000000 0.000001 -0.000001 0.000000 10.630561 2.257467 2.574104 1.994844 0.424679 -0.643535 1.998445 0.411422 -0.644322 9.702493 -3.246314 -2.268062 -10.737768 -16.425452 -3.964696 -0.000000 -0.000000 -0.000000 -0.000000 -0.000000 -0.000000 -0.000000 -0.000000 -0.000000 0.603427 -4.358106 -6.845063 -34.864783 -38.561776 -50.371890 0.000002 -123.343244 -0.000003 5.690280 -3.445434 -25.370073 -2.367900 1.218049 16.682810 24.921615 50.592031 -14.823930 -0.000001 0.000000 0.000000 12.747110 8.028005 -79.910030 6.567052 6.874062 -87.377012 -0.000001 0.000001 -0.000005 14.752765 8.139735 -81.435785 6.857100 6.881154 -89.798860 0.000002 -0.000000 0.000002 6.346265 6.860464 -85.567558 6.346539 6.860499 -85.533072 -0.000001 -0.000001 0.000001 11.407136 6.602086 -93.719751 5.804160 2.710402 -81.003086 0.000000 0.000001 0.000000 -0.000000 0.000001 0.000003 0.562430 3.247764 -9.982451 -33.448734 39.643808 39.474628 0.000021 73.845867 -0.000006 -18.712388 -3.783209 21.397495 -15.418467 5.043614 -7.421054 21.007051 -43.392755 4.392940 -0.000001 0.000001 -0.000001 5.531727 -7.465504 103.217190 6.432790 -6.929184 85.735280 -0.000002 0.000000 0.000004 9.319718 -6.540891 107.302156 4.755433 -6.594739 71.561360 0.000002 -0.000003 -0.000001 8.102272 -6.852180 99.595927 5.348580 -6.762467 76.658252 -0.000001 -0.000003 0.000003 1.263499 -6.399728 84.098903 6.629678 -6.940977 87.365674 -0.000003 0.000003 0.000001 -0.000002 0.000003 0.000003 0.000000 -0.000000 -0.000000 0.000000 -0.000000 -0.000000 0.000000 -0.000000 -0.000000 0.000000 -0.000000 -0.000000 0.000000 -0.000000 -0.000000 0.000000 -0.000000 -0.000000 0.000000 -0.000000 -0.000000 0.000000 -0.000000 -0.000000 0.000000 -0.000000 -0.000000 0.000000 -0.000000 -0.000000 0.000000 -0.000000 -0.000000 0.000000 -0.000000 -0.000000 
-2.397267 79.857468 1.838813 -6.739392 1.585809 1.433700 0.000001 0.000000 -0.000000 -9.364831 11.814529 11.452328 30.637418 2.935702 -0.879812 -11.687671 1.181326 -10.505742 0.000000 0.000001 -0.000000 0.000000 0.000001 -0.000000 0.000000 0.000002 0.000000 -7.754509 -9.161634 -9.344210 31.738209 -5.243996 -1.432983 -15.749091 -1.607974 8.998829 0.000000 0.000000 0.000000 0.000000 0.000000 0.000000 -0.000001 -0.000001 -0.000001 10.260421 -0.798205 2.344655 1.924605 -0.118212 -0.295101 1.923918 -0.126351 -0.294907 8.786557 -2.568469 -2.753610 -10.364949 -12.226739 -6.696368 -0.000000 -0.000000 -0.000001 -0.000000 -0.000000 -0.000001 -0.000000 -0.000000 -0.000001 0.629400 -4.175966 -4.397653 -44.356048 -34.735354 -51.499018 -0.000002 -120.417984 0.000002 4.512633 -4.592546 -26.911746 -2.381951 1.194657 16.511752 24.987363 50.652679 -14.874876 -0.000001 -0.000004 0.000001 12.793166 7.994239 -80.240564 6.554838 6.873496 -87.275003 -0.000002 0.000000 -0.000002 14.765841 8.130583 -81.506095 6.878459 6.881192 -89.977149 -0.000003 -0.000001 -0.000002 6.347338 6.860549 -85.576553 6.359189 6.861469 -85.638988 -0.000000 -0.000001 -0.000000 11.390263 6.613627 -93.572642 5.817897 2.712553 -81.118837 -0.000001 0.000001 -0.000005 0.000000 -0.000000 0.000005 0.593990 3.434896 -6.897546 -32.689518 43.266708 43.944539 0.000018 76.445840 -0.000011 -16.501945 -3.026304 20.848340 -14.963741 4.546660 -8.095198 21.170801 -43.648464 4.458675 -0.000001 0.000000 -0.000003 5.766356 -7.442283 103.830227 6.416503 -6.927963 85.600131 -0.000001 0.000002 0.000004 9.332861 -6.536453 107.363224 4.759906 -6.596230 71.600320 -0.000004 0.000001 -0.000004 8.090286 -6.854179 99.495523 5.329556 -6.757962 76.496582 0.000000 -0.000002 0.000002 1.271376 -6.406688 84.169254 6.613631 -6.940225 87.232929 -0.000003 0.000001 0.000000 -0.000001 -0.000001 0.000001 -0.000000 -0.000000 -0.000000 -0.000000 -0.000000 -0.000000 -0.000000 -0.000000 -0.000000 -0.000000 -0.000000 -0.000000 -0.000000 -0.000000 -0.000000 -0.000000 0.000000 -0.000000 -0.000000 -0.000000 -0.000000 -0.000000 -0.000000 -0.000000 -0.000000 0.000000 -0.000000 0.000001 -0.000000 0.000000 0.000001 -0.000000 0.000000 0.000001 0.000000 -0.000000 
-2.127433 80.042809 1.883439 -6.184741 -3.571189 0.529833 -0.000000 -0.000000 -0.000000 -8.134956 12.574494 11.762031 29.823014 6.472907 -1.445595 -11.854816 1.647600 -10.974947 -0.000000 -0.000001 -0.000000 -0.000000 -0.000001 -0.000000 0.000001 -0.000003 0.000001 -8.513581 -8.319159 -8.781861 30.167177 -1.172683 -1.688230 -14.894112 -1.555053 7.973018 -0.000000 0.000001 -0.000000 -0.000000 0.000001 -0.000000 -0.000000 0.000003 -0.000001 9.857256 -2.918897 2.023332 1.863836 -0.495913 -0.020388 1.862333 -0.499877 -0.019468 7.545074 -1.911404 -2.932870 -10.152173 -8.214896 -9.109445 -0.000000 0.000001 0.000000 -0.000000 0.000001 0.000000 -0.000000 0.000001 0.000000 0.585374 -3.243355 -1.033883 -51.959076 -31.093159 -51.561942 0.000037 -117.238312 0.000028 4.018642 -5.864560 -28.451512 -2.344150 1.294321 16.609618 24.974494 50.640908 -14.865002 0.000001 -0.000004 -0.000001 12.814288 7.978629 -80.392576 6.513277 6.871411 -86.927647 0.000000 -0.000000 -0.000004 14.758635 8.141052 -81.433149 6.868081 6.881174 -89.890487 0.000001 -0.000001 -0.000000 6.333050 6.859430 -85.456923 6.341722 6.860124 -85.492761 -0.000000 0.000001 -0.000004 11.385839 6.616675 -93.533717 5.790723 2.708266 -80.889828 -0.000001 0.000001 -0.000003 -0.000000 -0.000000 0.000000 0.597162 3.563100 -4.010326 -30.804997 46.849903 45.763596 0.000015 77.868767 -0.000012 -15.584852 -2.557013 21.136869 -14.588015 4.182012 -8.787849 21.103259 -43.544447 4.430444 0.000000 -0.000000 0.000002 5.885029 -7.436789 104.294502 6.391710 -6.926021 85.394659 -0.000003 0.000003 0.000001 9.325891 -6.538761 107.339688 4.751598 -6.593486 71.527845 0.000010 0.000003 -0.000003 8.075670 -6.856595 99.373215 5.306018 -6.752305 76.296423 -0.000003 0.000002 0.000004 1.278868 -6.413308 84.236252 6.595022 -6.939317 87.078813 -0.000004 -0.000000 -0.000002 0.000000 -0.000001 0.000002 0.000000 0.000000 -0.000000 0.000000 0.000000 -0.000000 0.000000 0.000000 -0.000000 0.000000 0.000000 -0.000000 0.000000 0.000000 -0.000000 0.000000 0.000000 -0.000000 0.000000 0.000000 -0.000000 0.000000 0.000000 -0.000000 0.000000 0.000000 -0.000000 -0.000001 -0.000000 -0.000000 -0.000001 -0.000000 -0.000000 -0.000000 -0.000000 -0.000000 
